HIERARCHY
ROOT Hips
{
	OFFSET -14.64140 90.27770 -84.91600
	CHANNELS 6 Xposition Yposition Zposition Zrotation Xrotation Yrotation
	JOINT Spine
	{
		OFFSET 0.00000 13.20850 -1.60436
		CHANNELS 3 Zrotation Xrotation Yrotation
		JOINT Spine1
		{
			OFFSET 0.00000 8.61716 0.00000
			CHANNELS 3 Zrotation Xrotation Yrotation
			JOINT Spine2
			{
				OFFSET 0.00000 8.61717 0.00000
				CHANNELS 3 Zrotation Xrotation Yrotation
				JOINT Spine3
				{
					OFFSET 0.00000 8.61717 0.00000
					CHANNELS 3 Zrotation Xrotation Yrotation
					JOINT Neck
					{
						OFFSET 0.00000 11.07920 1.10792
						CHANNELS 3 Zrotation Xrotation Yrotation
						JOINT Neck1
						{
							OFFSET 0.00000 7.08032 0.00000
							CHANNELS 3 Zrotation Xrotation Yrotation
							JOINT Head
							{
								OFFSET 0.00000 7.08031 0.00000
								CHANNELS 3 Zrotation Xrotation Yrotation
								End site
								{
									OFFSET 0.00000 0.00000 0.00000
								}
							}
						}
					}
					JOINT RightShoulder
					{
						OFFSET -0.01000 7.91373 5.19711
						CHANNELS 3 Zrotation Xrotation Yrotation
						JOINT RightArm
						{
							OFFSET -18.41580 0.00000 0.00000
							CHANNELS 3 Zrotation Xrotation Yrotation
							JOINT RightForeArm
							{
								OFFSET -29.11090 0.00000 0.00000
								CHANNELS 3 Zrotation Xrotation Yrotation
								JOINT RightHand
								{
									OFFSET -24.65040 0.00000 0.00000
									CHANNELS 3 Zrotation Xrotation Yrotation
									JOINT RightHandThumb1
									{
										OFFSET -5.35114 -0.85590 3.97906
										CHANNELS 3 Zrotation Xrotation Yrotation
										JOINT RightHandThumb2
										{
											OFFSET -4.52789 0.00000 0.00000
											CHANNELS 3 Zrotation Xrotation Yrotation
											JOINT RightHandThumb3
											{
												OFFSET -2.46976 0.00000 0.00000
												CHANNELS 3 Zrotation Xrotation Yrotation
												End site
												{
													OFFSET 0.00000 0.00000 0.00000
												}
											}
										}
									}
									JOINT RightHandIndex1
									{
										OFFSET -14.26970 0.00000 2.88139
										CHANNELS 3 Zrotation Xrotation Yrotation
										JOINT RightHandIndex2
										{
											OFFSET -5.48836 0.00000 0.00000
											CHANNELS 3 Zrotation Xrotation Yrotation
											JOINT RightHandIndex3
											{
												OFFSET -3.01859 0.00000 0.00000
												CHANNELS 3 Zrotation Xrotation Yrotation
												End site
												{
													OFFSET 0.00000 0.00000 0.00000
												}
											}
										}
									}
									JOINT RightHandMiddle1
									{
										OFFSET -14.26970 0.00000 -0.09147
										CHANNELS 3 Zrotation Xrotation Yrotation
										JOINT RightHandMiddle2
										{
											OFFSET -6.17441 0.00000 0.00000
											CHANNELS 3 Zrotation Xrotation Yrotation
											JOINT RightHandMiddle3
											{
												OFFSET -3.56743 0.00000 0.00000
												CHANNELS 3 Zrotation Xrotation Yrotation
												End site
												{
													OFFSET 0.00000 0.00000 0.00000
												}
											}
										}
									}
									JOINT RightHandRing1
									{
										OFFSET -12.69180 0.00000 -3.06433
										CHANNELS 3 Zrotation Xrotation Yrotation
										JOINT RightHandRing2
										{
											OFFSET -5.62556 0.00000 0.00000
											CHANNELS 3 Zrotation Xrotation Yrotation
											JOINT RightHandRing3
											{
												OFFSET -3.56744 0.00000 0.00000
												CHANNELS 3 Zrotation Xrotation Yrotation
												End site
												{
													OFFSET 0.00000 0.00000 0.00000
												}
											}
										}
									}
									JOINT RightHandPinky1
									{
										OFFSET -11.11390 0.00000 -6.03719
										CHANNELS 3 Zrotation Xrotation Yrotation
										JOINT RightHandPinky2
										{
											OFFSET -4.52789 0.00000 0.00000
											CHANNELS 3 Zrotation Xrotation Yrotation
											JOINT RightHandPinky3
											{
												OFFSET -2.46976 0.00000 0.00000
												CHANNELS 3 Zrotation Xrotation Yrotation
												End site
												{
													OFFSET 0.00000 0.00000 0.00000
												}
											}
										}
									}
								}
							}
						}
					}
					JOINT LeftShoulder
					{
						OFFSET 0.01000 7.91373 5.19711
						CHANNELS 3 Zrotation Xrotation Yrotation
						JOINT LeftArm
						{
							OFFSET 18.41580 0.00000 0.00000
							CHANNELS 3 Zrotation Xrotation Yrotation
							JOINT LeftForeArm
							{
								OFFSET 29.11090 0.00000 0.00000
								CHANNELS 3 Zrotation Xrotation Yrotation
								JOINT LeftHand
								{
									OFFSET 24.65040 0.00000 0.00000
									CHANNELS 3 Zrotation Xrotation Yrotation
									JOINT LeftHandThumb1
									{
										OFFSET 5.35114 -0.85590 3.97906
										CHANNELS 3 Zrotation Xrotation Yrotation
										JOINT LeftHandThumb2
										{
											OFFSET 4.52789 0.00000 0.00000
											CHANNELS 3 Zrotation Xrotation Yrotation
											JOINT LeftHandThumb3
											{
												OFFSET 2.46977 0.00000 0.00000
												CHANNELS 3 Zrotation Xrotation Yrotation
												End site
												{
													OFFSET 0.00000 0.00000 0.00000
												}
											}
										}
									}
									JOINT LeftHandIndex1
									{
										OFFSET 14.26970 0.00000 2.88139
										CHANNELS 3 Zrotation Xrotation Yrotation
										JOINT LeftHandIndex2
										{
											OFFSET 5.48836 0.00000 0.00000
											CHANNELS 3 Zrotation Xrotation Yrotation
											JOINT LeftHandIndex3
											{
												OFFSET 3.01859 0.00000 0.00000
												CHANNELS 3 Zrotation Xrotation Yrotation
												End site
												{
													OFFSET 0.00000 0.00000 0.00000
												}
											}
										}
									}
									JOINT LeftHandMiddle1
									{
										OFFSET 14.26970 0.00000 -0.09147
										CHANNELS 3 Zrotation Xrotation Yrotation
										JOINT LeftHandMiddle2
										{
											OFFSET 6.17440 0.00000 0.00000
											CHANNELS 3 Zrotation Xrotation Yrotation
											JOINT LeftHandMiddle3
											{
												OFFSET 3.56744 0.00000 0.00000
												CHANNELS 3 Zrotation Xrotation Yrotation
												End site
												{
													OFFSET 0.00000 0.00000 0.00000
												}
											}
										}
									}
									JOINT LeftHandRing1
									{
										OFFSET 12.69180 0.00000 -3.06433
										CHANNELS 3 Zrotation Xrotation Yrotation
										JOINT LeftHandRing2
										{
											OFFSET 5.62556 0.00000 0.00000
											CHANNELS 3 Zrotation Xrotation Yrotation
											JOINT LeftHandRing3
											{
												OFFSET 3.56744 0.00000 0.00000
												CHANNELS 3 Zrotation Xrotation Yrotation
												End site
												{
													OFFSET 0.00000 0.00000 0.00000
												}
											}
										}
									}
									JOINT LeftHandPinky1
									{
										OFFSET 11.11390 0.00000 -6.03719
										CHANNELS 3 Zrotation Xrotation Yrotation
										JOINT LeftHandPinky2
										{
											OFFSET 4.52789 0.00000 0.00000
											CHANNELS 3 Zrotation Xrotation Yrotation
											JOINT LeftHandPinky3
											{
												OFFSET 2.46976 0.00000 0.00000
												CHANNELS 3 Zrotation Xrotation Yrotation
												End site
												{
													OFFSET 0.00000 0.00000 0.00000
												}
											}
										}
									}
								}
							}
						}
					}
					JOINT pCube4
					{
						OFFSET 0.00000 10.91090 1.10792
						CHANNELS 3 Zrotation Xrotation Yrotation
						End site
						{
							OFFSET 0.00000 0.00000 0.00000
						}
					}
				}
			}
		}
	}
	JOINT RightUpLeg
	{
		OFFSET -9.98441 0.00000 0.00000
		CHANNELS 3 Zrotation Xrotation Yrotation
		JOINT RightLeg
		{
			OFFSET 0.00000 -42.11790 0.00000
			CHANNELS 3 Zrotation Xrotation Yrotation
			JOINT RightFoot
			{
				OFFSET 0.00000 -45.00020 -0.00001
				CHANNELS 3 Zrotation Xrotation Yrotation
				JOINT RightForeFoot
				{
					OFFSET 0.00000 -3.74820 0.00000
					CHANNELS 3 Zrotation Xrotation Yrotation
					JOINT RightToeBase
					{
						OFFSET 0.00000 0.06325 14.43120
						CHANNELS 3 Zrotation Xrotation Yrotation
						End site
						{
							OFFSET 0.00000 0.00000 0.00000
						}
					}
				}
			}
		}
	}
	JOINT LeftUpLeg
	{
		OFFSET 9.98441 0.00000 0.00000
		CHANNELS 3 Zrotation Xrotation Yrotation
		JOINT LeftLeg
		{
			OFFSET 0.00000 -42.11800 0.00000
			CHANNELS 3 Zrotation Xrotation Yrotation
			JOINT LeftFoot
			{
				OFFSET 0.00000 -45.00070 0.00000
				CHANNELS 3 Zrotation Xrotation Yrotation
				JOINT LeftForeFoot
				{
					OFFSET 0.00000 -3.74824 0.00000
					CHANNELS 3 Zrotation Xrotation Yrotation
					JOINT LeftToeBase
					{
						OFFSET 0.00000 0.06325 14.43110
						CHANNELS 3 Zrotation Xrotation Yrotation
						End site
						{
							OFFSET 0.00000 0.00000 0.00000
						}
					}
				}
			}
		}
	}
}
MOTION
Frames: 4
Frame Time: 0.050000
0.01149586922990057 0.03839580708152582 0.00048339224255738197 -0.033065453776846554 -0.023454789975134886 0.001995799564362214 2.044064240526209 4.532415730529919 -1.4934042808506687 -0.6306631221439648 3.8138162820540864 0.4061882286507698 -0.7393638354707812 -1.3540006912133127 1.3725464845150173 -0.6992942874685033 -0.23605155590080223 -0.2826484853938119 -0.024613944941026644 13.934097024028262 -1.2033567573830326 0.16029607640347024 -0.5908667889355713 -4.513713556122736 0.6758923529391663 -16.7879741041894 -0.3857647902345072 -7.391475206735614 2.8076519419724626 -14.875198223960753 74.5380411572031 11.029141997046056 19.644098730969393 6.9112311653793945 -3.923105547465588 86.81043793485208 21.613490737865604 -0.62868531088107 -4.6084244997608845 4.51528451715431 -0.15342776669467473 -1.564028038061295 -0.04708035807360326 -0.03581533874019579 -56.210620045483466 -0.010338584994587792 0.0053650484547917545 -56.186311441640825 -38.75813402949931 -0.026236404450571345 -0.001450135281995681 0.0075665519870096185 0.003581935666333009 -0.018001467893374236 -0.03143847670142092 0.044529713485074604 -0.04969936523185345 -36.65418838414803 -0.021682416483896263 0.04845951628380785 -0.014328554290430364 -0.025932093000944165 -0.01150018686933101 0.03176128001113713 0.029737692454042567 0.04419421456944012 -19.780377593889142 -0.041593414913844905 -0.016977411005090953 0.020725334857321098 -0.00019080028331298386 -0.03508983965057686 0.015821832468954355 0.022409670494603025 0.048871207808083045 24.00647718835401 0.007081913007006697 0.02844217282174326 28.816580870568007 -0.020053992898753762 -0.00914405042177799 28.817428871648097 -0.004559703867889754 0.02554818219225963 7.44228423484318 1.950025258688092 13.68744801619036 -72.2669476720529 21.594747457235233 -14.953227298879055 -7.397382620755743 1.792681446768227 -72.05881117421487 -20.682608782494597 4.069295789926985 -3.1557859029540185 -0.4522042167021026 0.06463995180105805 -8.104551137634488 -0.04123260500141792 -0.01562878402919131 44.61458481013125 -0.022482594549517277 -0.029578275022143337 44.56401061163402 12.477838367336046 0.008303289599432731 0.025111197467019748 -0.004358048507762034 -0.03866330105844091 -0.045999511080929444 -0.022096270840624162 -0.01847011013060403 -0.013436907432565334 11.081620932598968 0.03045324461494755 -0.010407839562237526 -0.009684598384694949 -0.009074219209489757 0.0017738916570190708 0.033973085310702374 0.02162413734340597 -0.015808226575784026 4.743534170178706 0.011351959432347384 0.04452092631378669 -0.005391609271480047 -0.018026611340494783 -0.048020065764538225 -0.029949230948961236 0.02816963840909502 -0.00032813287957700365 -5.573996105329085 -0.007307496245194475 -0.012897478479053617 -6.765913329975474 0.008799949116216038 -0.024673390851401123 -6.694246317816719 -0.043531520297697496 -0.026919937556941324 -0.027693935869099535 -0.013055525435160462 0.013240912994161337 8.07526121365232 3.531456252663297 -19.221425464288217 0.030710119988458705 10.411072233199402 0.04216788389285104 -5.616519501625552 -15.648514911994342 3.2391031776510855 -0.01365348263168888 -0.030422136668142814 0.0007487276947489838 0.00410625708332264 4.658318663152095 -0.026231556111368116 12.441163772204419 -8.193892428521085 6.890920939715438 -0.02288347640759946 46.36654770993925 0.026552896696272903 -4.3424594380091595 -14.70245779714361 -3.811653775293353 -0.01858062368278645 -0.020033293806392242 -0.005385356324717152 -0.005220818682766585 -10.754895950246892 -0.03019079631955164 
0.008158893561047728 0.002055685190889909 0.010233242417258231 -0.01199816881152549 0.03654080971718798 0.02242057242313717 2.0828640539227408 4.5957752583484845 -1.4081048410881511 -0.649065135769634 3.8700330927906994 0.346292499158 -0.7411658779266804 -1.2919391085077603 1.394254733414459 -0.5848438520047374 -0.13979283744090704 -0.2788260838001754 0.04594612117170532 13.854535059510193 -1.346351752976644 0.11421752322705978 -0.5832088599772527 -4.987703933341729 0.7170611276095639 -16.61443796777153 -0.45129629217054507 -6.922506225702104 2.710981021396084 -14.970097183212989 73.84277997582626 12.258467840809981 18.12121489438258 5.947937054084217 -3.8781865020188686 87.51511795708944 21.714039275146153 -0.5387147004379129 -4.733122823743222 4.5267202162092115 -0.11792862042181847 -1.5843142021864007 0.028037642522504024 0.012009793964375784 -56.27274093291481 -0.037395385619535065 0.020508496224003858 -56.21747697767076 -38.792106766719925 0.028099795237206023 0.03930823672534465 0.019442902103299492 0.009262729352360093 0.04963949759480999 0.023040324734130258 -0.005866383638387374 0.027685639576307344 -36.68341363650764 0.016308459700735696 -0.03816896857522934 -0.015039241771920054 0.004593015548091885 -0.03657358105498155 -0.01958004279793916 -0.048572185943115506 0.01571646122819749 -19.781508168895947 0.041100934332483886 -0.026807999707440393 0.0012567290618272402 0.010961804454509125 -0.036423313262998774 0.039549763765109665 -0.025898114256754517 -0.03831321117407842 24.054868924934443 0.010130457871073452 -0.04446179360321362 28.83193262089724 0.0003890150272315485 -0.03484512847742639 28.825685128033275 0.016434782135494118 0.005487630887297166 6.978210342323473 1.8584292457957785 13.685415581186032 -72.10132943159421 22.075323851662134 -13.796475990490947 -6.863495850151987 2.4953964793987726 -71.37182297768697 -20.800801413362766 4.29435196843429 -3.2075129051962303 -0.5175004395516243 0.05269054982329972 -8.122341245250452 -0.028502516371057985 -0.029193873245927555 44.607998717388185 -0.04637042101075065 0.01685949357158846 44.57537142610043 12.489445774315337 -0.005420263609651776 0.010548150618008964 -0.002277457409780801 0.0038864444279479546 -0.03596771792221073 -0.0010902529086988804 -0.040012381307196566 -0.02602572023406873 11.124370107688623 -0.0015034076450099459 0.029584015448714734 0.036199917177762005 -0.01441239865590828 0.010794665232803508 -0.006492050146830828 -0.04554781562783405 0.01932000222854939 4.76450542200962 0.016052639140033874 0.024161431172177294 -0.0025163519649094553 -0.010775393034771309 0.024525882095890437 -0.011130081036407991 -0.018911751300098676 -0.030799792070098475 -5.5709476537871625 -0.014478612060630166 -0.034805206516429224 -6.762656500719181 0.0412871457061081 0.03246300537848258 -6.70016968312001 0.017146753968838496 -0.016189977524358398 -0.01032612111374961 0.023293604528937754 0.02205951002447669 8.083641556905388 3.5036772913978247 -19.262086409484514 -0.005359877536738387 10.360072234739294 0.010842336110816288 -5.60962383554767 -15.612807115236718 3.2310198542646336 0.008641324177059859 0.013581260374988222 0.031285982650575916 -0.018828412266735976 4.737943497494229 -0.0071921107523741775 12.44030542608256 -8.223625700636 6.891252778514925 -0.031381564535033074 46.40992651435256 0.02852116499330699 -4.341620466091201 -14.794686785558937 -3.8773728656268927 0.044788366193874676 0.01372758183665352 -0.026146097961862423 0.02377316740685842 -10.733666770804312 -0.046274238375961514 
-0.04138172307826964 0.027633087580920385 0.015539226510782262 -0.025977906413264806 -0.002085906397554958 -0.046033683803310105 2.1312824614308075 4.702293651136888 -1.4497546834913162 -0.6740123165583928 3.83015867571701 0.34022195057333376 -0.656389743111289 -1.2338454854697665 1.4209361623529073 -0.47715017398864634 -0.2067961293094498 -0.3072805334087556 0.10360612981113922 13.64195015125198 -1.5378816583838593 0.11103375844012968 -0.4445897933024693 -5.380618673375583 0.6969758287060541 -16.361366159970803 -0.4811264497864006 -6.614959051014265 2.5658776414707005 -15.065545464115264 73.3281712258722 13.354993242598947 15.969897219127384 5.029184783387569 -3.101876824308832 85.9699985234191 22.305990994408706 -0.5847817539322867 -4.890017811029814 4.5307873262425185 -0.12566621601385838 -1.6249143130407804 0.011249648876153148 -0.030772494165693283 -56.26633954493626 -0.0016912976223552893 0.035110208520562756 -56.20663426268314 -38.76960111896546 -0.047634739170795914 0.003681067375925927 0.006993187722572617 -0.01954626180009113 0.03978288646542406 -0.0009458436100326669 -0.04703826263829492 -0.028510576864423733 -36.66066102601459 -0.011067459529085453 -0.025043968424531323 -0.024805127131625627 0.0031141597616887715 0.034629553130184045 0.02640707599838496 -0.005335570429529119 -0.04028526842121877 -19.725584993385095 0.007451365350531654 0.0015214143842716618 -0.035252052019522716 0.002760398688821053 -0.0006980709758208015 -0.019854811530486426 0.017947735271384425 0.03621925416341865 24.0606485358363 -0.0493861913918509 -0.02445028523252503 28.89539683890706 -0.020247020867200975 -0.048272466970230785 28.84334470516126 -0.005767595839876633 -0.012590831389062567 6.519863392789654 1.8458269360082786 13.820281413562583 -71.75109156520854 22.383499157312684 -12.656432415406492 -5.492351491077541 3.235813885945787 -69.28700735775551 -21.017774636248884 4.692084203132492 -3.3686222614691395 -0.44589558821639097 0.09537963885080569 -8.145325853940761 -0.03487530402687675 0.0007608084980769458 44.54688435442249 0.013898872213101487 -0.006321068006565157 44.529748582126146 12.444843178788696 -0.004345030323983923 -0.04274612462239828 -0.02143515678417583 0.01436831229717663 0.04275853517030079 0.0071762164529501045 -0.009794084856723555 -0.013939580401880963 11.131410767781018 0.0035754934453983513 0.03594522587553645 0.038251740171367114 -0.014082482027756433 -0.003205623525931246 0.030031023473505215 -0.024273301119269963 0.01884406349018795 4.72745321312741 0.032391881925516786 0.02285099661831512 -0.024232718353499615 0.01954634061034662 0.04490133431555949 -0.03320312396647649 -0.019056956505668278 -0.016640437806836928 -5.567627126781051 0.015962561833413765 0.03992772433000896 -6.674105130689258 0.0059463688930473475 0.0013248570156471045 -6.6738720773895235 -0.004150893352621711 -0.019842962196025972 -0.01805519169260907 -0.020997751817936235 -0.03142397049130364 8.008925312492208 3.541398083388088 -19.207936019317774 -0.0006740296772456331 10.348594308931098 -0.0034048118870929865 -5.629066610764482 -15.700326319265423 3.1615194776900486 -0.045938627299968185 -0.00484405676785105 -0.013671601686572738 -0.018428175920408883 4.68734951913373 0.016827181232516072 12.434666005269412 -8.244279043220994 6.899686227873522 -0.0036663659352158136 46.393242652560495 -0.02261941630479532 -4.3064642365610935 -14.707009535778653 -3.847409249433724 -0.0213520202132386 0.004802797039440895 0.001083672355418588 -0.02517336093225923 -10.743305141871577 -0.013553672480016758 
-0.012703062035685884 0.005663095079880297 0.01698988288298614 0.022107218586129893 -0.006431407734046087 -0.033283325874493785 2.1288443419107486 4.698756729949201 -1.5077934420728432 -0.6084359907583466 3.8178932864585207 0.3838338981262815 -0.7102584920644117 -1.228677358770667 1.2920442850167737 -0.46358390866264815 -0.19443916111044732 -0.3693299540826949 0.10545186186902858 13.512847197929972 -1.586433112214835 0.11339262005162679 -0.3622065452912209 -5.455493233724232 0.7467956937875722 -16.117332201961126 -0.4642503519564049 -6.099301393147058 2.5051979753536964 -15.177080703733877 72.87287955332073 14.576699899544797 13.271969859113687 4.083895416871867 -1.5238128910289424 82.96854805684832 23.500163957753827 -0.5165600422528427 -4.947903037440888 4.526434165245974 -0.09826834770738532 -1.6422887187489712 -0.017333846674210823 0.04670676859040476 -56.264196770957426 -0.02078411264997047 -0.035246971871035586 -56.228688344609644 -38.77843690640739 -0.038715901394988934 -0.0036307698062005684 -0.007058283756712333 -0.005224844275786044 -0.0013248271630836538 0.00599637807206938 -0.004132099353518645 0.03207471016315236 -36.74369689788775 0.032281259343032796 0.04819145102505933 -0.006290428132099458 0.00566476347244885 -0.0423625664413113 0.04823706789883517 -0.030385948029433698 -0.04907754598998122 -19.76899572373767 0.04380656766673324 0.005933330676279562 0.003862694719554844 -0.0010318915209610784 0.022153411182828178 0.04345812786454883 0.006282994490752049 0.01893330627252857 24.02886318372128 0.02969550029738063 -0.009198748571712654 28.910758204349445 -0.029763447155702484 0.0025093098510117692 28.908376255654638 0.014738310397472728 0.012298447277082078 6.135976985514937 1.748859363434254 13.824520506898818 -71.50352100510263 22.59059312172686 -11.705970930689464 -4.14624135052264 3.734913932450878 -67.59551160837154 -21.28434326749607 5.244503836347299 -3.5792625795557518 -0.4540172731641872 0.07853396393296262 -8.111452010168898 -0.008910480654697127 -0.04775757293724148 44.56216912077046 -0.016757286314586964 0.029168919695754376 44.59678499657372 12.453135962897095 0.020668406352845017 0.018650407911724374 -0.034371741862344346 -0.018108720967069895 -0.045823630191714364 0.020454337269270543 -0.049958272916743644 -0.040613800504270055 11.104085303114502 -0.03879864936854922 -0.04640978852107624 -0.04667135560173759 0.0027981311441967285 -0.03201264968282151 -0.012858714064029816 -0.01950023759005276 -0.025178021244052124 4.738744960542717 -0.01521826665099048 0.00547560141360938 -0.006867316706170176 -0.002138792429011259 -0.01234705517858089 -0.016041461253742808 -0.04022295164091982 0.004107479585985155 -5.610883355269193 0.013329130384295826 -0.046161042571812944 -6.7126028487122085 -0.03681229690570574 0.015055133235193299 -6.699370306095684 -0.03593546804136938 -0.04048362217005151 0.04570812027916207 -0.013812768108214593 0.004829862397004236 8.07482857436589 3.4986937608672393 -19.25059713045543 -0.028010054606571626 10.3951433518088 0.00832738020777948 -5.578472211462499 -15.644742222261945 3.21732289259367 -0.00350523843533788 0.034946978913885686 -0.020936013128559017 -0.017751498551985743 4.745754047803102 0.019070077318972114 12.453435782556596 -8.273710194312768 6.8974412168789305 0.010257826913043212 46.3636915904575 0.015534238979423366 -4.275733636255406 -14.746948257382252 -3.8371330092824594 -0.04601790032918866 0.013260212859544963 0.016071019251272783 0.009505273877364733 -10.742404167096238 0.024947249155741376 
